<svg xmlns="http://www.w3.org/2000/svg" width="2000" height="1321" viewBox="0 0 2000 1321" fill="none"><path d="M1000.8 0H1.69922V1319.4H1000.8V0Z" fill="white"></path><mask id="mask0_70_127" style="mask-type:luminance" maskUnits="userSpaceOnUse" x="1" y="0" width="859" height="1320"><path d="M859.499 0H1.69922V1319.4H859.499V0Z" fill="white"></path></mask><g mask="url(#mask0_70_127)"><path d="M-147.8 837.599C-219.9 797.699 -26.7995 463.6 115 402.2C220.7 356.4 549.3 336 710 328.6C761.3 326.2 805.801 363.6 812.401 414.5C827.201 528.7 849.701 726.099 847.401 847.599C846.301 907.799 796.5 955.7 736.3 954.5C733.3 954.4 730.301 954.3 727.401 954C478.101 928.9 -91.5995 868.699 -147.8 837.599Z" fill="white"></path><path d="M-95.1991 809.999C-160.099 775.399 13.6009 485.299 141.201 431.999C236.301 392.299 531.901 374.499 676.401 368.099C722.601 365.999 762.601 398.499 768.501 442.699C781.801 541.899 802.101 713.299 800.001 818.799C798.901 874.099 749.101 916.699 692.101 911.199C467.801 889.299 -44.6991 836.999 -95.1991 809.999Z" fill="#CBD2DC"></path><path d="M220.2 597H201.9V648.7H220.2V597Z" fill="#808290"></path><path d="M261.4 865.8L160.6 853.7V691.9C160.6 664.1 183.2 641.5 211 641.5C238.8 641.5 261.4 664.1 261.4 691.9V865.8Z" fill="#2F313F"></path><path d="M209.3 482.199H212.6C239.5 482.199 261.4 503.999 261.4 530.999V562.299C261.4 589.199 239.6 611.099 212.6 611.099H209.3C182.4 611.099 160.5 589.299 160.5 562.299V530.999C160.5 503.999 182.4 482.199 209.3 482.199Z" fill="#2F313F"></path><path d="M173.2 407.8H136V869.4H173.2V407.8Z" fill="white"></path><mask id="mask1_70_127" style="mask-type:luminance" maskUnits="userSpaceOnUse" x="-110" y="368" width="911" height="544"><path d="M-95.1991 809.999C-160.099 775.399 13.6009 485.299 141.201 431.999C236.301 392.299 531.901 374.499 676.401 368.099C722.601 365.999 762.601 398.499 768.501 442.699C781.801 541.899 802.101 713.299 800.001 818.799C798.901 874.099 749.101 916.699 692.101 911.199C467.801 889.299 -44.6991 836.999 -95.1991 809.999Z" fill="white"></path></mask><g mask="url(#mask1_70_127)"><path d="M588.1 858.699H261.4V945.199H588.1V858.699Z" fill="#248E5B"></path><path d="M575.902 874.799C568.102 967.399 500.902 943.199 408.302 935.399C315.702 927.599 232.902 939.099 240.702 846.499C247.802 753.899 328.602 684.599 421.202 691.599C513.802 698.599 583.102 779.499 576.102 872.099C576.102 873.099 576.002 873.999 575.902 874.799Z" fill="#248E5B"></path><path d="M410.602 486.999C380.002 490.699 357.702 514.299 360.702 539.699L368.902 608.799C371.902 634.299 399.202 651.899 429.802 648.299C460.402 644.699 482.702 620.999 479.702 595.599L471.402 526.499C468.502 500.999 441.202 483.299 410.602 486.999Z" fill="#F8AE80"></path><path d="M454.902 491.499C446.102 466.799 377.002 454.899 340.002 490.799C307.702 522.099 307.402 545.299 315.002 573.899C322.602 602.499 348.102 615.999 367.102 621.199C386.102 626.399 388.702 606.399 388.702 606.399C388.702 606.399 366.602 604.599 368.202 579.599C369.802 554.599 398.402 563.799 398.402 563.799C398.402 563.799 463.702 516.199 454.902 491.499Z" fill="#2F313F"></path><path d="M336.502 500.299C356.108 500.299 372.002 484.405 372.002 464.799C372.002 445.193 356.108 429.299 336.502 429.299C316.896 429.299 301.002 445.193 301.002 464.799C301.002 484.405 316.896 500.299 336.502 500.299Z" fill="#2F313F"></path><path d="M399.789 841.068C404.44 797.686 373.132 758.757 329.86 754.118C286.588 749.479 247.738 780.886 243.087 824.268C238.436 867.649 269.745 906.578 313.017 911.217C356.289 915.857 395.138 884.45 399.789 841.068Z" fill="#34D085"></path><path d="M385.4 952.899L229.4 936.199L243.5 820.099L400.2 836.899L385.4 952.899Z" fill="#34D085"></path><path d="M651.201 983.699C527.201 807.199 385.001 689.099 173.201 601.999V564.599C388.401 648.799 550.401 778.399 673.001 955.699L651.201 983.699Z" fill="#2F313F"></path></g><path d="M35.8 1635.7C210.488 1635.7 352.1 1494.09 352.1 1319.4C352.1 1144.71 210.488 1003.1 35.8 1003.1C-138.888 1003.1 -280.5 1144.71 -280.5 1319.4C-280.5 1494.09 -138.888 1635.7 35.8 1635.7Z" fill="#2F313F"></path><path d="M35.8008 1513.9C143.22 1513.9 230.301 1426.82 230.301 1319.4C230.301 1211.98 143.22 1124.9 35.8008 1124.9C-71.6186 1124.9 -158.699 1211.98 -158.699 1319.4C-158.699 1426.82 -71.6186 1513.9 35.8008 1513.9Z" fill="#A3B0C2"></path><path d="M35.8008 1407.4C84.4018 1407.4 123.801 1368 123.801 1319.4C123.801 1270.8 84.4018 1231.4 35.8008 1231.4C-12.8003 1231.4 -52.1992 1270.8 -52.1992 1319.4C-52.1992 1368 -12.8003 1407.4 35.8008 1407.4Z" fill="#CBD2DC"></path></g><path d="M0 0L0.1 457.1C37.9 421 78.8 392.8 114.5 377.3C245.4 320.7 628.9 292.7 859.6 280.7L859.5 0H0Z" fill="#CBD2DC"></path><path d="M2000 0H664.801V1319.4H2000V0Z" fill="#34D186"></path><path d="M1002.2 413.4H1630.1C1654.8 413.4 1674.8 433.4 1674.8 458.1V830.7C1674.8 855.4 1654.8 875.4 1630.1 875.4H1002.2C977.5 875.4 957.5 855.4 957.5 830.7V458.1C957.5 433.4 977.5 413.4 1002.2 413.4Z" fill="#5B68F6"></path><path d="M1029.2 554.301H1090.4C1103.2 554.301 1113.6 564.701 1113.6 577.501V609.501C1113.6 622.301 1103.2 632.701 1090.4 632.701H1029.2C1016.4 632.701 1006 622.301 1006 609.501V577.501C1006 564.701 1016.4 554.301 1029.2 554.301Z" fill="#FBED8E"></path><path d="M1018.5 707.4H1124C1130.9 707.4 1136.5 713 1136.5 719.9V732.1C1136.5 739 1130.9 744.6 1124 744.6H1018.5C1011.6 744.6 1006 739 1006 732.1V719.9C1006 713 1011.6 707.4 1018.5 707.4Z" fill="#B8BDFF"></path><path d="M1181.8 707.4H1287.3C1294.2 707.4 1299.8 713 1299.8 719.9V732.1C1299.8 739 1294.2 744.6 1287.3 744.6H1181.8C1174.9 744.6 1169.3 739 1169.3 732.1V719.9C1169.3 713 1174.9 707.4 1181.8 707.4Z" fill="#B8BDFF"></path><path d="M1345 707.4H1450.5C1457.4 707.4 1463 713 1463 719.9V732.1C1463 739 1457.4 744.6 1450.5 744.6H1345C1338.1 744.6 1332.5 739 1332.5 732.1V719.9C1332.5 713 1338.1 707.4 1345 707.4Z" fill="#B8BDFF"></path><path d="M1508.2 707.4H1613.7C1620.6 707.4 1626.2 713 1626.2 719.9V732.1C1626.2 739 1620.6 744.6 1613.7 744.6H1508.2C1501.3 744.6 1495.7 739 1495.7 732.1V719.9C1495.7 713 1501.3 707.4 1508.2 707.4Z" fill="#B8BDFF"></path><path d="M1631.3 632.7C1728.39 632.7 1807.1 553.991 1807.1 456.9C1807.1 359.808 1728.39 281.1 1631.3 281.1C1534.21 281.1 1455.5 359.808 1455.5 456.9C1455.5 553.991 1534.21 632.7 1631.3 632.7Z" fill="white"></path><path d="M1721.4 404.5C1714.6 398.9 1704.3 399.9 1698.1 406.1L1615.3 488.9L1579.6 453.2C1573.3 446.9 1563.1 445.9 1556.3 451.6C1549 457.5 1548 468.3 1553.9 475.5C1554.3 475.9 1554.6 476.4 1555 476.8L1601.8 523.7C1609.2 531.1 1621.2 531.1 1628.7 523.7L1639.3 513.1L1722.6 429.8C1729.3 423.2 1729.3 412.4 1722.7 405.8C1722.3 405.3 1721.9 404.9 1721.4 404.5Z" fill="#34D186"></path><path fill-rule="evenodd" clip-rule="evenodd" d="M1573.43 773.06C1568.04 773.408 1563.33 775.139 1560 777.998C1557.34 780.281 1555.69 783.236 1555.18 786.653C1555.05 787.538 1555.01 789.204 1555.09 789.993C1555.48 793.583 1557.39 796.343 1561.26 798.932C1562.33 799.64 1563.24 800.174 1565.49 801.401C1568.75 803.186 1569.69 803.783 1570.63 804.676C1571.59 805.583 1572.01 806.423 1572.01 807.402C1571.99 809.796 1569.57 811.586 1565.78 812.018C1564.89 812.119 1562.47 812.054 1561.29 811.897C1558.42 811.512 1555.58 810.661 1553.1 809.435C1552.62 809.2 1552.22 809.017 1552.21 809.028C1552.18 809.055 1550.02 819.22 1550.02 819.319C1550.02 819.405 1550.57 819.63 1551.83 820.05C1557.46 821.931 1563.94 822.49 1569.32 821.558C1573.93 820.761 1577.72 818.978 1580.45 816.331C1582.84 814.001 1584.28 811.108 1584.71 807.728C1584.84 806.698 1584.84 804.823 1584.71 803.944C1584.17 800.318 1582.1 797.448 1578.15 794.855C1577.09 794.158 1575.97 793.515 1573.87 792.39C1571.67 791.208 1571.13 790.899 1570.3 790.348C1569.07 789.533 1568.4 788.847 1568 788.014C1567.77 787.522 1567.72 786.803 1567.88 786.263C1568.32 784.721 1570.13 783.498 1572.6 783.076C1575.83 782.523 1580.47 783.229 1584.25 784.849C1584.61 785.005 1584.92 785.123 1584.93 785.11C1584.96 785.072 1587.1 775.111 1587.08 775.097C1586.99 775.025 1585.38 774.49 1584.62 774.277C1581 773.267 1576.99 772.83 1573.43 773.06ZM1477.11 774.516C1477.04 774.93 1476.99 775.275 1477 775.283C1477.01 775.291 1477.35 775.367 1477.75 775.452C1480.87 776.104 1484.41 777.222 1487.42 778.498C1489.66 779.451 1490.79 780.443 1491.39 782.001C1491.67 782.712 1491.63 782.58 1496.78 802.466L1501.64 821.206H1508.09H1514.54L1524.45 797.501L1534.35 773.795L1527.94 773.78C1524.42 773.772 1521.52 773.785 1521.5 773.81C1521.47 773.834 1518.73 780.771 1515.39 789.224C1508.18 807.479 1508.79 805.961 1508.77 805.892C1508.76 805.861 1507.56 799.611 1506.12 792.003C1504.67 784.395 1503.44 777.984 1503.37 777.756C1503.1 776.864 1502.71 776.196 1502.08 775.518C1501.38 774.775 1500.49 774.262 1499.39 773.958L1498.8 773.795L1488.02 773.779L1477.24 773.763L1477.11 774.516ZM1539.48 773.84C1539.47 773.88 1537.21 784.514 1534.46 797.471C1531.71 810.428 1529.45 821.075 1529.43 821.132C1529.4 821.23 1529.72 821.236 1535.55 821.236H1541.69L1541.72 821.102C1541.74 821.029 1543.99 810.408 1546.71 797.501C1549.44 784.593 1551.69 773.972 1551.71 773.899L1551.74 773.766H1545.62C1540.78 773.766 1539.5 773.781 1539.48 773.84ZM1606.6 773.853C1604.85 774.171 1603.61 775.168 1602.6 777.08C1602.39 777.484 1584.32 820.78 1584.22 821.132C1584.19 821.23 1584.52 821.236 1590.62 821.235L1597.04 821.235L1598.28 817.644L1599.52 814.053L1607.33 814.038L1615.13 814.023L1615.2 814.334C1615.24 814.504 1615.58 816.121 1615.96 817.925L1616.65 821.206L1622.34 821.221C1627.84 821.236 1628.03 821.233 1628 821.127C1627.98 821.067 1625.76 810.386 1623.05 797.392L1618.13 773.766L1612.58 773.771C1608.3 773.775 1606.93 773.794 1606.6 773.853ZM1611.36 795.55C1612.37 800.297 1613.21 804.227 1613.23 804.284C1613.26 804.382 1612.99 804.388 1608.17 804.388C1603.35 804.388 1603.09 804.382 1603.12 804.284C1603.15 804.227 1604.58 800.247 1606.3 795.44C1608.49 789.343 1609.45 786.732 1609.48 786.809C1609.51 786.869 1610.35 790.803 1611.36 795.55Z" fill="white"></path></svg>