<svg xmlns="http://www.w3.org/2000/svg" width="1001" height="201" viewBox="0 0 1001 201" fill="none"><path d="M20 28.5H150.5V62.5H10.5V38C10.5 32.7533 14.7533 28.5 20 28.5Z" fill="#EFEFEF" stroke="black"></path><rect x="290.5" y="28.5" width="140" height="34" fill="#EFEFEF" stroke="black"></rect><rect x="710.5" y="28.5" width="140" height="34" fill="#EFEFEF" stroke="black"></rect><rect x="150.5" y="28.5" width="140" height="34" fill="#EFEFEF" stroke="black"></rect><rect x="570.5" y="28.5" width="140" height="34" fill="#EFEFEF" stroke="black"></rect><rect x="430.5" y="28.5" width="140" height="34" fill="#EFEFEF" stroke="black"></rect><path d="M850.5 28.5H981C986.247 28.5 990.5 32.7533 990.5 38V62.5H850.5V28.5Z" fill="#EFEFEF" stroke="black"></path><path d="M10.5 68.5H150.5V172.5H20C14.7533 172.5 10.5 168.247 10.5 163V68.5Z" fill="#127042" stroke="black"></path><rect x="290.5" y="68.5" width="140" height="104" fill="#1D965C" stroke="black"></rect><rect x="710.5" y="68.5" width="140" height="104" fill="#FBFAFC" stroke="black"></rect><rect x="150.5" y="68.5" width="140" height="104" fill="#1F8251" stroke="black"></rect><rect x="570.5" y="68.5" width="140" height="104" fill="#FBFAFC" stroke="black"></rect><rect x="430.5" y="68.5" width="140" height="104" fill="#FBFAFC" stroke="black"></rect><path d="M850.5 68.5H990.5V163C990.5 168.247 986.247 172.5 981 172.5H850.5V68.5Z" fill="#FBFAFC" stroke="black"></path><path d="M72.6177 135.32C70.4311 135.32 68.4711 134.76 66.7377 133.64C65.0311 132.52 63.6711 130.894 62.6577 128.76C61.6711 126.627 61.1777 124.04 61.1777 121C61.1777 117.96 61.6711 115.374 62.6577 113.24C63.6711 111.107 65.0311 109.48 66.7377 108.36C68.4711 107.24 70.4311 106.68 72.6177 106.68C74.7777 106.68 76.7244 107.24 78.4577 108.36C80.1911 109.48 81.5511 111.107 82.5377 113.24C83.5244 115.374 84.0177 117.96 84.0177 121C84.0177 124.04 83.5244 126.627 82.5377 128.76C81.5511 130.894 80.1911 132.52 78.4577 133.64C76.7244 134.76 74.7777 135.32 72.6177 135.32ZM72.6177 131.76C74.0844 131.76 75.3644 131.36 76.4577 130.56C77.5777 129.76 78.4444 128.56 79.0577 126.96C79.6977 125.36 80.0177 123.374 80.0177 121C80.0177 118.627 79.6977 116.64 79.0577 115.04C78.4444 113.44 77.5777 112.24 76.4577 111.44C75.3644 110.64 74.0844 110.24 72.6177 110.24C71.1511 110.24 69.8577 110.64 68.7377 111.44C67.6177 112.24 66.7377 113.44 66.0977 115.04C65.4844 116.64 65.1777 118.627 65.1777 121C65.1777 123.374 65.4844 125.36 66.0977 126.96C66.7377 128.56 67.6177 129.76 68.7377 130.56C69.8577 131.36 71.1511 131.76 72.6177 131.76Z" fill="#212121"></path><path d="M92.5774 135V108.6L94.2974 110.48H86.2574V107H96.5374V135H92.5774Z" fill="#212121"></path><path d="M208.536 135.32C206.349 135.32 204.389 134.76 202.656 133.64C200.949 132.52 199.589 130.894 198.576 128.76C197.589 126.627 197.096 124.04 197.096 121C197.096 117.96 197.589 115.374 198.576 113.24C199.589 111.107 200.949 109.48 202.656 108.36C204.389 107.24 206.349 106.68 208.536 106.68C210.696 106.68 212.642 107.24 214.376 108.36C216.109 109.48 217.469 111.107 218.456 113.24C219.442 115.374 219.936 117.96 219.936 121C219.936 124.04 219.442 126.627 218.456 128.76C217.469 130.894 216.109 132.52 214.376 133.64C212.642 134.76 210.696 135.32 208.536 135.32ZM208.536 131.76C210.002 131.76 211.282 131.36 212.376 130.56C213.496 129.76 214.362 128.56 214.976 126.96C215.616 125.36 215.936 123.374 215.936 121C215.936 118.627 215.616 116.64 214.976 115.04C214.362 113.44 213.496 112.24 212.376 111.44C211.282 110.64 210.002 110.24 208.536 110.24C207.069 110.24 205.776 110.64 204.656 111.44C203.536 112.24 202.656 113.44 202.016 115.04C201.402 116.64 201.096 118.627 201.096 121C201.096 123.374 201.402 125.36 202.016 126.96C202.656 128.56 203.536 129.76 204.656 130.56C205.776 131.36 207.069 131.76 208.536 131.76Z" fill="#212121"></path><path d="M223.335 135V132.28L234.735 121.28C235.749 120.32 236.495 119.48 236.975 118.76C237.482 118.014 237.815 117.334 237.975 116.72C238.162 116.08 238.255 115.467 238.255 114.88C238.255 113.44 237.749 112.307 236.735 111.48C235.722 110.654 234.242 110.24 232.295 110.24C230.802 110.24 229.455 110.494 228.255 111C227.055 111.48 226.015 112.24 225.135 113.28L222.415 110.92C223.482 109.56 224.909 108.52 226.695 107.8C228.509 107.054 230.495 106.68 232.655 106.68C234.602 106.68 236.295 107 237.735 107.64C239.175 108.254 240.282 109.147 241.055 110.32C241.855 111.494 242.255 112.88 242.255 114.48C242.255 115.387 242.135 116.28 241.895 117.16C241.655 118.04 241.202 118.974 240.535 119.96C239.869 120.947 238.909 122.054 237.655 123.28L227.495 133.08L226.535 131.52H243.455V135H223.335Z" fill="#212121"></path><path d="M348.77 135.32C346.583 135.32 344.623 134.76 342.89 133.64C341.183 132.52 339.823 130.894 338.81 128.76C337.823 126.627 337.33 124.04 337.33 121C337.33 117.96 337.823 115.374 338.81 113.24C339.823 111.107 341.183 109.48 342.89 108.36C344.623 107.24 346.583 106.68 348.77 106.68C350.93 106.68 352.877 107.24 354.61 108.36C356.343 109.48 357.703 111.107 358.69 113.24C359.677 115.374 360.17 117.96 360.17 121C360.17 124.04 359.677 126.627 358.69 128.76C357.703 130.894 356.343 132.52 354.61 133.64C352.877 134.76 350.93 135.32 348.77 135.32ZM348.77 131.76C350.237 131.76 351.517 131.36 352.61 130.56C353.73 129.76 354.597 128.56 355.21 126.96C355.85 125.36 356.17 123.374 356.17 121C356.17 118.627 355.85 116.64 355.21 115.04C354.597 113.44 353.73 112.24 352.61 111.44C351.517 110.64 350.237 110.24 348.77 110.24C347.303 110.24 346.01 110.64 344.89 111.44C343.77 112.24 342.89 113.44 342.25 115.04C341.637 116.64 341.33 118.627 341.33 121C341.33 123.374 341.637 125.36 342.25 126.96C342.89 128.56 343.77 129.76 344.89 130.56C346.01 131.36 347.303 131.76 348.77 131.76Z" fill="#212121"></path><path d="M372.179 135.32C370.206 135.32 368.286 135.014 366.419 134.4C364.579 133.787 363.072 132.96 361.899 131.92L363.739 128.76C364.672 129.64 365.886 130.36 367.379 130.92C368.872 131.48 370.472 131.76 372.179 131.76C374.259 131.76 375.872 131.32 377.019 130.44C378.192 129.534 378.779 128.32 378.779 126.8C378.779 125.334 378.219 124.16 377.099 123.28C376.006 122.374 374.259 121.92 371.859 121.92H369.619V119.12L377.939 108.88L378.499 110.48H363.179V107H381.659V109.72L373.379 119.92L371.299 118.68H372.619C376.006 118.68 378.539 119.44 380.219 120.96C381.926 122.48 382.779 124.414 382.779 126.76C382.779 128.334 382.392 129.774 381.619 131.08C380.846 132.387 379.672 133.427 378.099 134.2C376.552 134.947 374.579 135.32 372.179 135.32Z" fill="#212121"></path><path d="M486.641 135.32C484.455 135.32 482.495 134.76 480.761 133.64C479.055 132.52 477.695 130.894 476.681 128.76C475.695 126.627 475.201 124.04 475.201 121C475.201 117.96 475.695 115.374 476.681 113.24C477.695 111.107 479.055 109.48 480.761 108.36C482.495 107.24 484.455 106.68 486.641 106.68C488.801 106.68 490.748 107.24 492.481 108.36C494.215 109.48 495.575 111.107 496.561 113.24C497.548 115.374 498.041 117.96 498.041 121C498.041 124.04 497.548 126.627 496.561 128.76C495.575 130.894 494.215 132.52 492.481 133.64C490.748 134.76 488.801 135.32 486.641 135.32ZM486.641 131.76C488.108 131.76 489.388 131.36 490.481 130.56C491.601 129.76 492.468 128.56 493.081 126.96C493.721 125.36 494.041 123.374 494.041 121C494.041 118.627 493.721 116.64 493.081 115.04C492.468 113.44 491.601 112.24 490.481 111.44C489.388 110.64 488.108 110.24 486.641 110.24C485.175 110.24 483.881 110.64 482.761 111.44C481.641 112.24 480.761 113.44 480.121 115.04C479.508 116.64 479.201 118.627 479.201 121C479.201 123.374 479.508 125.36 480.121 126.96C480.761 128.56 481.641 129.76 482.761 130.56C483.881 131.36 485.175 131.76 486.641 131.76Z" fill="#D8D8D8"></path><path d="M501.481 128.12V125.32L515.801 107H520.121L505.921 125.32L503.881 124.68H526.241V128.12H501.481ZM517.041 135V128.12L517.161 124.68V118.6H520.921V135H517.041Z" fill="#D8D8D8"></path><path d="M628.536 135.32C626.349 135.32 624.389 134.76 622.656 133.64C620.949 132.52 619.589 130.894 618.576 128.76C617.589 126.627 617.096 124.04 617.096 121C617.096 117.96 617.589 115.374 618.576 113.24C619.589 111.107 620.949 109.48 622.656 108.36C624.389 107.24 626.349 106.68 628.536 106.68C630.696 106.68 632.642 107.24 634.376 108.36C636.109 109.48 637.469 111.107 638.456 113.24C639.442 115.374 639.936 117.96 639.936 121C639.936 124.04 639.442 126.627 638.456 128.76C637.469 130.894 636.109 132.52 634.376 133.64C632.642 134.76 630.696 135.32 628.536 135.32ZM628.536 131.76C630.002 131.76 631.282 131.36 632.376 130.56C633.496 129.76 634.362 128.56 634.976 126.96C635.616 125.36 635.936 123.374 635.936 121C635.936 118.627 635.616 116.64 634.976 115.04C634.362 113.44 633.496 112.24 632.376 111.44C631.282 110.64 630.002 110.24 628.536 110.24C627.069 110.24 625.776 110.64 624.656 111.44C623.536 112.24 622.656 113.44 622.016 115.04C621.402 116.64 621.096 118.627 621.096 121C621.096 123.374 621.402 125.36 622.016 126.96C622.656 128.56 623.536 129.76 624.656 130.56C625.776 131.36 627.069 131.76 628.536 131.76Z" fill="#D8D8D8"></path><path d="M652.815 135.32C650.842 135.32 648.922 135.014 647.055 134.4C645.215 133.787 643.709 132.96 642.535 131.92L644.375 128.76C645.309 129.64 646.522 130.36 648.015 130.92C649.509 131.48 651.095 131.76 652.775 131.76C654.909 131.76 656.549 131.307 657.695 130.4C658.842 129.494 659.415 128.28 659.415 126.76C659.415 125.72 659.162 124.814 658.655 124.04C658.149 123.267 657.269 122.68 656.015 122.28C654.789 121.854 653.095 121.64 650.935 121.64H644.575L646.055 107H661.855V110.48H647.535L649.615 108.52L648.455 120.08L646.375 118.16H651.775C654.575 118.16 656.829 118.52 658.535 119.24C660.242 119.96 661.482 120.96 662.255 122.24C663.029 123.494 663.415 124.947 663.415 126.6C663.415 128.2 663.029 129.667 662.255 131C661.482 132.307 660.309 133.36 658.735 134.16C657.189 134.934 655.215 135.32 652.815 135.32Z" fill="#D8D8D8"></path><path d="M767.676 135.32C765.49 135.32 763.53 134.76 761.796 133.64C760.09 132.52 758.73 130.894 757.716 128.76C756.73 126.627 756.236 124.04 756.236 121C756.236 117.96 756.73 115.374 757.716 113.24C758.73 111.107 760.09 109.48 761.796 108.36C763.53 107.24 765.49 106.68 767.676 106.68C769.836 106.68 771.783 107.24 773.516 108.36C775.25 109.48 776.61 111.107 777.596 113.24C778.583 115.374 779.076 117.96 779.076 121C779.076 124.04 778.583 126.627 777.596 128.76C776.61 130.894 775.25 132.52 773.516 133.64C771.783 134.76 769.836 135.32 767.676 135.32ZM767.676 131.76C769.143 131.76 770.423 131.36 771.516 130.56C772.636 129.76 773.503 128.56 774.116 126.96C774.756 125.36 775.076 123.374 775.076 121C775.076 118.627 774.756 116.64 774.116 115.04C773.503 113.44 772.636 112.24 771.516 111.44C770.423 110.64 769.143 110.24 767.676 110.24C766.21 110.24 764.916 110.64 763.796 111.44C762.676 112.24 761.796 113.44 761.156 115.04C760.543 116.64 760.236 118.627 760.236 121C760.236 123.374 760.543 125.36 761.156 126.96C761.796 128.56 762.676 129.76 763.796 130.56C764.916 131.36 766.21 131.76 767.676 131.76Z" fill="#D8D8D8"></path><path d="M794.676 135.32C792.196 135.32 790.076 134.774 788.316 133.68C786.556 132.587 785.209 131.014 784.276 128.96C783.369 126.88 782.916 124.347 782.916 121.36C782.916 118.187 783.476 115.507 784.596 113.32C785.716 111.134 787.276 109.48 789.276 108.36C791.276 107.24 793.569 106.68 796.156 106.68C797.489 106.68 798.756 106.814 799.956 107.08C801.183 107.347 802.236 107.76 803.116 108.32L801.596 111.44C800.876 110.934 800.049 110.587 799.116 110.4C798.209 110.214 797.249 110.12 796.236 110.12C793.383 110.12 791.116 111.014 789.436 112.8C787.756 114.56 786.916 117.187 786.916 120.68C786.916 121.24 786.943 121.907 786.996 122.68C787.049 123.454 787.183 124.214 787.396 124.96L786.036 123.6C786.436 122.374 787.063 121.347 787.916 120.52C788.796 119.667 789.836 119.04 791.036 118.64C792.263 118.214 793.583 118 794.996 118C796.863 118 798.516 118.347 799.956 119.04C801.396 119.734 802.529 120.72 803.356 122C804.183 123.254 804.596 124.747 804.596 126.48C804.596 128.267 804.156 129.827 803.276 131.16C802.396 132.494 801.209 133.52 799.716 134.24C798.223 134.96 796.543 135.32 794.676 135.32ZM794.516 132.08C795.743 132.08 796.809 131.854 797.716 131.4C798.649 130.947 799.383 130.32 799.916 129.52C800.449 128.694 800.716 127.734 800.716 126.64C800.716 124.987 800.143 123.68 798.996 122.72C797.849 121.734 796.289 121.24 794.316 121.24C793.036 121.24 791.916 121.48 790.956 121.96C789.996 122.44 789.236 123.094 788.676 123.92C788.143 124.72 787.876 125.64 787.876 126.68C787.876 127.64 788.129 128.534 788.636 129.36C789.143 130.16 789.889 130.814 790.876 131.32C791.863 131.827 793.076 132.08 794.516 132.08Z" fill="#D8D8D8"></path><path d="M908.704 135.32C906.517 135.32 904.557 134.76 902.824 133.64C901.117 132.52 899.757 130.894 898.744 128.76C897.757 126.627 897.264 124.04 897.264 121C897.264 117.96 897.757 115.374 898.744 113.24C899.757 111.107 901.117 109.48 902.824 108.36C904.557 107.24 906.517 106.68 908.704 106.68C910.864 106.68 912.81 107.24 914.544 108.36C916.277 109.48 917.637 111.107 918.624 113.24C919.61 115.374 920.104 117.96 920.104 121C920.104 124.04 919.61 126.627 918.624 128.76C917.637 130.894 916.277 132.52 914.544 133.64C912.81 134.76 910.864 135.32 908.704 135.32ZM908.704 131.76C910.17 131.76 911.45 131.36 912.544 130.56C913.664 129.76 914.53 128.56 915.144 126.96C915.784 125.36 916.104 123.374 916.104 121C916.104 118.627 915.784 116.64 915.144 115.04C914.53 113.44 913.664 112.24 912.544 111.44C911.45 110.64 910.17 110.24 908.704 110.24C907.237 110.24 905.944 110.64 904.824 111.44C903.704 112.24 902.824 113.44 902.184 115.04C901.57 116.64 901.264 118.627 901.264 121C901.264 123.374 901.57 125.36 902.184 126.96C902.824 128.56 903.704 129.76 904.824 130.56C905.944 131.36 907.237 131.76 908.704 131.76Z" fill="#D8D8D8"></path><path d="M928.51 135L940.39 108.68L941.43 110.48H924.79L926.79 108.52V115.48H922.95V107H944.07V109.72L932.75 135H928.51Z" fill="#D8D8D8"></path><path d="M62.2051 54V36.5H77.2801V54H74.8301V38.025L75.4301 38.675H64.0551L64.6801 38.025V54H62.2051Z" fill="#212121"></path><path d="M95.2873 36.5H97.7873V54H95.2873V36.5ZM85.2373 54H82.7373V36.5H85.2373V54ZM95.5123 46.2H84.9873V44.025H95.5123V46.2Z" fill="#212121"></path><path d="M205.977 54V36.5H213.502C215.402 36.5 216.893 36.8833 217.977 37.65C219.06 38.4167 219.602 39.5333 219.602 41C219.602 42.4333 219.085 43.5333 218.052 44.3C217.018 45.05 215.66 45.425 213.977 45.425L214.427 44.675C216.377 44.675 217.868 45.0667 218.902 45.85C219.952 46.6167 220.477 47.7417 220.477 49.225C220.477 50.725 219.927 51.9 218.827 52.75C217.743 53.5833 216.127 54 213.977 54H205.977ZM208.452 52.025H213.927C215.26 52.025 216.26 51.7833 216.927 51.3C217.61 50.8 217.952 50.0417 217.952 49.025C217.952 48.0083 217.61 47.2667 216.927 46.8C216.26 46.3333 215.26 46.1 213.927 46.1H208.452V52.025ZM208.452 44.2H213.327C214.543 44.2 215.468 43.9583 216.102 43.475C216.752 42.9917 217.077 42.2833 217.077 41.35C217.077 40.4 216.752 39.6833 216.102 39.2C215.468 38.7167 214.543 38.475 213.327 38.475H208.452V44.2Z" fill="#212121"></path><path d="M227.984 54V38.025L228.609 38.675H222.009V36.5H236.434V38.675H229.834L230.434 38.025V54H227.984Z" fill="#212121"></path><path d="M352.654 54.2C351.321 54.2 350.088 53.9834 348.954 53.55C347.838 53.1 346.863 52.475 346.029 51.675C345.213 50.8584 344.571 49.9084 344.104 48.825C343.638 47.7417 343.404 46.55 343.404 45.25C343.404 43.95 343.638 42.7584 344.104 41.675C344.571 40.5917 345.221 39.65 346.054 38.85C346.888 38.0334 347.863 37.4084 348.979 36.975C350.113 36.525 351.346 36.3 352.679 36.3C354.029 36.3 355.271 36.5334 356.404 37C357.554 37.45 358.529 38.125 359.329 39.025L357.704 40.6C357.038 39.9 356.288 39.3834 355.454 39.05C354.621 38.7 353.729 38.525 352.779 38.525C351.796 38.525 350.879 38.6917 350.029 39.025C349.196 39.3584 348.471 39.825 347.854 40.425C347.238 41.025 346.754 41.7417 346.404 42.575C346.071 43.3917 345.904 44.2834 345.904 45.25C345.904 46.2167 346.071 47.1167 346.404 47.95C346.754 48.7667 347.238 49.475 347.854 50.075C348.471 50.675 349.196 51.1417 350.029 51.475C350.879 51.8084 351.796 51.975 352.779 51.975C353.729 51.975 354.621 51.8084 355.454 51.475C356.288 51.125 357.038 50.5917 357.704 49.875L359.329 51.45C358.529 52.35 357.554 53.0334 356.404 53.5C355.271 53.9667 354.021 54.2 352.654 54.2Z" fill="#212121"></path><path d="M362.774 54V36.5H369.599C371.132 36.5 372.44 36.7417 373.524 37.225C374.607 37.7084 375.44 38.4084 376.024 39.325C376.607 40.2417 376.899 41.3334 376.899 42.6C376.899 43.8667 376.607 44.9584 376.024 45.875C375.44 46.775 374.607 47.475 373.524 47.975C372.44 48.4584 371.132 48.7 369.599 48.7H364.149L365.274 47.525V54H362.774ZM365.274 47.775L364.149 46.525H369.524C371.124 46.525 372.332 46.1834 373.149 45.5C373.982 44.8167 374.399 43.85 374.399 42.6C374.399 41.35 373.982 40.3834 373.149 39.7C372.332 39.0167 371.124 38.675 369.524 38.675H364.149L365.274 37.425V47.775Z" fill="#212121"></path><path d="M496.889 46.9C495.906 47.3167 494.948 47.6333 494.014 47.85C493.098 48.05 492.206 48.15 491.339 48.15C489.206 48.15 487.548 47.6333 486.364 46.6C485.198 45.5667 484.614 44.0917 484.614 42.175V36.5H487.064V41.9C487.064 43.2 487.464 44.2 488.264 44.9C489.064 45.6 490.181 45.95 491.614 45.95C492.464 45.95 493.331 45.8417 494.214 45.625C495.114 45.4083 495.989 45.0917 496.839 44.675L496.889 46.9ZM496.464 54V36.5H498.939V54H496.464Z" fill="#212121"></path><path d="M507.972 54V38.025L508.597 38.675H501.997V36.5H516.422V38.675H509.822L510.422 38.025V54H507.972Z" fill="#212121"></path><path d="M624.927 54V36.5H640.002V54H637.552V38.025L638.152 38.675H626.777L627.402 38.025V54H624.927Z" fill="#212121"></path><path d="M649.034 54V38.025L649.659 38.675H643.059V36.5H657.484V38.675H650.884L651.484 38.025V54H649.034Z" fill="#212121"></path><path d="M772.935 54.2C771.601 54.2 770.368 53.9834 769.235 53.55C768.118 53.1 767.143 52.475 766.31 51.675C765.493 50.8584 764.851 49.9084 764.385 48.825C763.918 47.7417 763.685 46.55 763.685 45.25C763.685 43.95 763.918 42.7584 764.385 41.675C764.851 40.5917 765.501 39.65 766.335 38.85C767.168 38.0334 768.143 37.4084 769.26 36.975C770.393 36.525 771.626 36.3 772.96 36.3C774.31 36.3 775.551 36.5334 776.685 37C777.835 37.45 778.81 38.125 779.61 39.025L777.985 40.6C777.318 39.9 776.568 39.3834 775.735 39.05C774.901 38.7 774.01 38.525 773.06 38.525C772.076 38.525 771.16 38.6917 770.31 39.025C769.476 39.3584 768.751 39.825 768.135 40.425C767.518 41.025 767.035 41.7417 766.685 42.575C766.351 43.3917 766.185 44.2834 766.185 45.25C766.185 46.2167 766.351 47.1167 766.685 47.95C767.035 48.7667 767.518 49.475 768.135 50.075C768.751 50.675 769.476 51.1417 770.31 51.475C771.16 51.8084 772.076 51.975 773.06 51.975C774.01 51.975 774.901 51.8084 775.735 51.475C776.568 51.125 777.318 50.5917 777.985 49.875L779.61 51.45C778.81 52.35 777.835 53.0334 776.685 53.5C775.551 53.9667 774.301 54.2 772.935 54.2Z" fill="#212121"></path><path d="M783.054 54V36.5H796.254V38.625H785.529V43.625H790.979C793.062 43.625 794.646 44.0584 795.729 44.925C796.812 45.7917 797.354 47.05 797.354 48.7C797.354 50.4 796.762 51.7084 795.579 52.625C794.412 53.5417 792.737 54 790.554 54H783.054ZM785.529 52.025H790.454C791.904 52.025 792.996 51.75 793.729 51.2C794.479 50.65 794.854 49.8334 794.854 48.75C794.854 46.65 793.387 45.6 790.454 45.6H785.529V52.025Z" fill="#212121"></path><path d="M915.584 36.5H918.084V54H915.584V36.5ZM905.534 54H903.034V36.5H905.534V54ZM915.809 46.2H905.284V44.025H915.809V46.2Z" fill="#212121"></path><path d="M934.947 52.825V38.675H927.272L927.147 42.35C927.097 43.5833 927.014 44.7667 926.897 45.9C926.797 47.0333 926.647 48.0583 926.447 48.975C926.247 49.875 925.964 50.6167 925.597 51.2C925.247 51.7833 924.797 52.1417 924.247 52.275L921.547 51.825C922.197 51.875 922.731 51.6583 923.147 51.175C923.581 50.675 923.914 49.9833 924.147 49.1C924.397 48.2 924.581 47.1583 924.697 45.975C924.814 44.775 924.897 43.4917 924.947 42.125L925.122 36.5H937.422V52.825H934.947ZM920.922 57.825L920.947 51.825H939.997V57.825H937.672V54H923.272L923.247 57.825H920.922Z" fill="#212121"></path><path d="M334.21 47.1512C320.208 51.972 308.731 62.5047 302.929 76.3505C298.854 85.8406 297.242 96.3969 297.208 106.713C296.969 134.48 311.568 158.733 336.587 170.259C348.19 175.696 361.112 178.098 373.882 178.001C398.96 177.938 417.76 165.367 427.125 141.642C431.461 130.767 433.524 119.022 434.154 107.329C434.309 104.736 434.331 102.136 434.221 99.5402C433.282 80.7873 425.497 62.2852 412.6 48.7947C403.214 38.9441 391.033 32.3198 377.759 29.8485C357.899 26.2452 335.833 30.682 318.446 40.9298C305.236 48.6771 294.292 60.9134 289.711 75.8463C283.828 95.4745 287.064 118.33 298.265 135.421C312.777 157.782 339.203 167.379 364.793 166.318C385.57 165.294 407.641 160.46 423.359 145.784L424.73 144.454C425.548 143.698 426.561 142.473 427.348 141.663C429.421 139.237 431.313 136.657 433.007 133.944C433.354 133.396 434.131 131.987 434.463 131.457C434.795 130.927 435.492 129.487 435.793 128.894C436.279 127.916 436.747 126.827 437.212 125.834C437.74 124.486 438.331 123.161 438.787 121.784C441.186 115.111 442.588 108.024 443.283 100.938C443.555 97.7582 443.833 94.4267 443.758 91.2337C442.874 65.4756 429.537 39.8899 408.557 25.2654C396.388 16.8074 381.514 13.1676 366.866 14.2232C339.805 15.5584 315.851 28.4009 299.091 49.9549C295.914 54.0611 293.022 58.3872 290.436 62.9019C290.262 63.2095 289.974 63.4343 289.637 63.5267C289.299 63.619 288.94 63.5715 288.637 63.3944C288.334 63.2173 288.113 62.9253 288.022 62.5825C287.931 62.2398 287.978 61.8743 288.152 61.5667C293.396 52.2804 299.919 43.7152 307.654 36.4147C315.405 29.0773 324.33 23.135 334.046 18.8429C343.745 14.5629 354.196 12.078 364.731 11.2863C370.004 10.9153 375.346 10.8317 380.606 11.4823C413.161 14.9575 437.837 43.919 444.931 75.1329C446.603 82.3289 447.377 89.841 446.822 97.2539C446.714 99.1822 446.518 101.346 446.289 103.264C444.733 117.282 440.088 131.35 431.101 142.301C416.988 159.844 394.297 167.016 372.8 169.025C354.453 170.975 335.162 168.367 318.958 158.979C294.821 145.243 282.388 118.552 284.168 90.8888C285.256 68.5719 298.199 49.5054 317.091 38.5835C334.257 28.5864 354.656 24.1941 374.307 26.5823C391.478 28.6544 407.566 37.8179 418.506 51.3867C429.447 64.8642 436.106 81.9579 436.983 99.4121C437.132 103.436 437.026 107.466 436.667 111.476C435.805 122.152 433.72 132.763 429.766 142.734C419.835 168.02 399.56 181.194 372.923 180.998C360.047 180.943 347.104 178.516 335.347 172.984C309.346 160.996 294.001 135.593 294.335 106.707C294.397 96.6712 295.894 86.4259 299.59 77.0769C301.562 72.0323 304.228 67.2968 307.507 63.0116C314.063 54.4308 323.269 48.1023 333.354 44.6219C335.036 44.0993 335.828 46.5345 334.21 47.1512Z" fill="#212121"></path></svg>