<svg xmlns="http://www.w3.org/2000/svg" width="451" height="265" viewBox="0 0 451 265" fill="none"><path fill-rule="evenodd" clip-rule="evenodd" d="M361.9 0L315.2 9.89999V198.6H361.9V0Z" fill="#32BB78"></path><path fill-rule="evenodd" clip-rule="evenodd" d="M228.9 151.9C216 151.9 205.5 141.4 205.5 128.5C205.5 115.6 216 105.1 228.9 105.1C241.8 105.1 252.3 115.6 252.3 128.5C252.3 141.4 241.8 151.9 228.9 151.9ZM228.9 56.4C189.1 56.4 156.8 88.7 156.8 128.5C156.8 168.3 189.1 200.6 228.9 200.6C268.7 200.6 301 168.3 301 128.5C301 88.7 268.7 56.4 228.9 56.4Z" fill="#32BB78"></path><path fill-rule="evenodd" clip-rule="evenodd" d="M228.9 217.5C241.8 217.5 252.3 228 252.3 240.9C252.3 253.8 241.8 264.3 228.9 264.3C216 264.3 205.5 253.8 205.5 240.9C205.5 227.9 216 217.5 228.9 217.5Z" fill="#32BB78"></path><path fill-rule="evenodd" clip-rule="evenodd" d="M81.9 151.9H46.8V122.7H81.9C90 122.9 96.3 129.6 96.1 137.7C95.9 145.4 89.6 151.7 81.9 151.9ZM46.8 46.8H72.8C80.9 47 87.2 53.7 87 61.8C86.8 69.6 80.5 75.8 72.8 76H46.8V46.8ZM124.9 93.6C142.7 64.8 133.8 27 104.9 9.2C95.2 3.2 84.1 0.1 72.7 0H0V198.6H81.8C115.7 198.6 143.1 171.1 143.1 137.2C143.1 120.9 136.6 105.2 124.9 93.6Z" fill="#32BB78"></path><path fill-rule="evenodd" clip-rule="evenodd" d="M450.3 105.8V59.1H426.9V23.4L380.2 33.3V154.2C380.2 182.7 397.9 199.1 424 200.5C424.3 200.5 424.6 200.6 424.8 200.6H425.3C425.9 200.6 426.4 200.7 427 200.7H427.6C435.6 200.7 443.4 198.7 450.4 194.9V160.4C447 161.3 443.5 161.8 440 161.8C430.7 161.8 427.1 153.6 427.1 142.5V105.8H450.3Z" fill="#32BB78"></path></svg>